<?xml version="1.0" encoding="UTF-8" standalone="no"?>
<svg
   xmlns:dc="http://purl.org/dc/elements/1.1/"
   xmlns:cc="http://creativecommons.org/ns#"
   xmlns:rdf="http://www.w3.org/1999/02/22-rdf-syntax-ns#"
   xmlns:svg="http://www.w3.org/2000/svg"
   xmlns="http://www.w3.org/2000/svg"
   xmlns:xlink="http://www.w3.org/1999/xlink"
   xmlns:sodipodi="http://sodipodi.sourceforge.net/DTD/sodipodi-0.dtd"
   xmlns:inkscape="http://www.inkscape.org/namespaces/inkscape"
   width="720"
   height="720"
   viewBox="0 0 190.50001 190.50001"
   version="1.1"
   id="svg8"
   inkscape:version="1.0.1 (3bc2e813f5, 2020-09-07)"
   sodipodi:docname="icon.svg"
   inkscape:export-filename="D:\dev\boris\apps\currency-converter\icon.png"
   inkscape:export-xdpi="96"
   inkscape:export-ydpi="96">
  <title
     id="title3788">Icon</title>
  <defs
     id="defs2">
    <inkscape:path-effect
       effect="fillet_chamfer"
       id="path-effect3062"
       is_visible="true"
       lpeversion="1"
       satellites_param="C,0,0,1,0,1.0583333,0,3 @ C,0,0,1,0,1.0583333,0,3 @ C,0,0,1,0,1.0583333,0,3 @ C,0,0,1,0,1.0583333,0,3 @ C,0,0,1,0,1.0583333,0,3 @ C,0,0,1,0,1.0583333,0,3 @ C,0,0,1,0,1.0583333,0,3 @ C,0,0,1,0,1.0583333,0,3 @ C,0,0,1,0,1.0583333,0,3 @ C,0,0,1,0,1.0583333,0,3 | C,0,0,1,0,1.0583333,0,3 @ C,0,0,1,0,1.0583333,0,3 @ C,0,0,1,0,1.0583333,0,3 @ C,0,0,1,0,1.0583333,0,3 @ C,0,0,1,0,1.0583333,0,3 @ C,0,0,1,0,1.0583333,0,3 @ C,0,0,1,0,1.0583333,0,3 @ C,0,0,1,0,1.0583333,0,3 @ C,0,0,1,0,1.0583333,0,3 @ C,0,0,1,0,1.0583333,0,3"
       unit="px"
       method="bezier"
       mode="F"
       radius="4"
       chamfer_steps="3"
       flexible="false"
       use_knot_distance="true"
       apply_no_radius="true"
       apply_with_radius="true"
       only_selected="false"
       hide_knots="false" />
    <inkscape:path-effect
       effect="fillet_chamfer"
       id="path-effect3048"
       is_visible="true"
       lpeversion="1"
       satellites_param="C,0,0,1,0,1.0583333,0,3 @ C,0,0,1,0,1.0583333,0,3 @ C,0,0,1,0,1.0583333,0,3 @ C,0,0,1,0,1.0583333,0,3 @ C,0,0,1,0,1.0583333,0,3 @ C,0,0,1,0,1.0583333,0,3 @ C,0,0,1,0,1.0583333,0,3 @ C,0,0,1,0,1.0583333,0,3 @ C,0,0,1,0,1.0583333,0,3 @ C,0,0,1,0,1.0583333,0,3 | C,0,0,1,0,1.0583333,0,3 @ C,0,0,1,0,1.0583333,0,3 @ C,0,0,1,0,1.0583333,0,3 @ C,0,0,1,0,1.0583333,0,3 @ C,0,0,1,0,1.0583333,0,3 @ C,0,0,1,0,1.0583333,0,3 @ C,0,0,1,0,1.0583333,0,3 @ C,0,0,1,0,1.0583333,0,3 @ C,0,0,1,0,1.0583333,0,3 @ C,0,0,1,0,1.0583333,0,3"
       unit="px"
       method="bezier"
       mode="F"
       radius="4"
       chamfer_steps="3"
       flexible="false"
       use_knot_distance="true"
       apply_no_radius="true"
       apply_with_radius="true"
       only_selected="false"
       hide_knots="false" />
    <inkscape:path-effect
       effect="fillet_chamfer"
       id="path-effect2920"
       is_visible="true"
       lpeversion="1"
       satellites_param="C,0,0,1,0,1.0583333,0,3 @ C,0,0,1,0,1.0583333,0,3 @ C,0,0,1,0,1.0583333,0,3 @ C,0,0,1,0,1.0583333,0,3 @ C,0,0,1,0,1.0583333,0,3 @ C,0,0,1,0,1.0583333,0,3 @ C,0,0,1,0,1.0583333,0,3 @ C,0,0,1,0,1.0583333,0,3 @ C,0,0,1,0,1.0583333,0,3 @ C,0,0,1,0,1.0583333,0,3 | C,0,0,1,0,1.0583333,0,3 @ C,0,0,1,0,1.0583333,0,3 @ C,0,0,1,0,1.0583333,0,3 @ C,0,0,1,0,1.0583333,0,3 @ C,0,0,1,0,1.0583333,0,3 @ C,0,0,1,0,1.0583333,0,3 @ C,0,0,1,0,1.0583333,0,3 @ C,0,0,1,0,1.0583333,0,3 @ C,0,0,1,0,1.0583333,0,3 @ C,0,0,1,0,1.0583333,0,3"
       unit="px"
       method="bezier"
       mode="F"
       radius="4"
       chamfer_steps="3"
       flexible="false"
       use_knot_distance="true"
       apply_no_radius="true"
       apply_with_radius="true"
       only_selected="false"
       hide_knots="false" />
    <inkscape:path-effect
       effect="fillet_chamfer"
       id="path-effect2912"
       is_visible="true"
       lpeversion="1"
       satellites_param="C,0,0,1,0,1.0583333,0,3 @ C,0,0,1,0,1.0583333,0,3 @ C,0,0,1,0,1.0583333,0,3 @ C,0,0,1,0,1.0583333,0,3 @ C,0,0,1,0,1.0583333,0,3 @ C,0,0,1,0,1.0583333,0,3 @ C,0,0,1,0,1.0583333,0,3 @ C,0,0,1,0,1.0583333,0,3 @ C,0,0,1,0,1.0583333,0,3 @ C,0,0,1,0,1.0583333,0,3 | C,0,0,1,0,1.0583333,0,3 @ C,0,0,1,0,1.0583333,0,3 @ C,0,0,1,0,1.0583333,0,3 @ C,0,0,1,0,1.0583333,0,3 @ C,0,0,1,0,1.0583333,0,3 @ C,0,0,1,0,1.0583333,0,3 @ C,0,0,1,0,1.0583333,0,3 @ C,0,0,1,0,1.0583333,0,3 @ C,0,0,1,0,1.0583333,0,3 @ C,0,0,1,0,1.0583333,0,3"
       unit="px"
       method="bezier"
       mode="F"
       radius="4"
       chamfer_steps="3"
       flexible="false"
       use_knot_distance="true"
       apply_no_radius="true"
       apply_with_radius="true"
       only_selected="false"
       hide_knots="false" />
    <linearGradient
       inkscape:collect="always"
       id="linearGradient1247">
      <stop
         style="stop-color:#000000;stop-opacity:1;"
         offset="0"
         id="stop1243" />
      <stop
         style="stop-color:#000000;stop-opacity:0;"
         offset="1"
         id="stop1245" />
    </linearGradient>
    <inkscape:path-effect
       effect="powermask"
       id="path-effect3747"
       is_visible="true"
       lpeversion="1"
       uri="#mask-powermask-path-effect3747"
       invert="false"
       hide_mask="false"
       background="true"
       background_color="#ffffffff" />
    <linearGradient
       inkscape:collect="always"
       id="linearGradient3739">
      <stop
         style="stop-color:#000000;stop-opacity:1;"
         offset="0"
         id="stop3733" />
      <stop
         style="stop-color:#000000;stop-opacity:1"
         offset="0.25704175"
         id="stop3735" />
      <stop
         style="stop-color:#000000;stop-opacity:0;"
         offset="1"
         id="stop3737" />
    </linearGradient>
    <inkscape:path-effect
       effect="powermask"
       id="path-effect3717"
       is_visible="true"
       lpeversion="1"
       uri="#mask-powermask-path-effect3717"
       invert="false"
       hide_mask="false"
       background="false"
       background_color="#ffffffff" />
    <linearGradient
       inkscape:collect="always"
       id="linearGradient3601">
      <stop
         style="stop-color:#000000;stop-opacity:1;"
         offset="0"
         id="stop3597" />
      <stop
         style="stop-color:#000000;stop-opacity:1"
         offset="0.54658937"
         id="stop3607" />
      <stop
         style="stop-color:#000000;stop-opacity:0;"
         offset="1"
         id="stop3599" />
    </linearGradient>
    <linearGradient
       inkscape:collect="always"
       id="linearGradient6197">
      <stop
         style="stop-color:#ecf0f3;stop-opacity:1;"
         offset="0"
         id="stop6193" />
      <stop
         style="stop-color:#ecf0f3;stop-opacity:0"
         offset="1"
         id="stop6195" />
    </linearGradient>
    <rect
       x="85.800598"
       y="30.616072"
       width="100.72207"
       height="104.3157"
       id="rect2163" />
    <rect
       x="41.577381"
       y="23.056547"
       width="141.36308"
       height="90.714287"
       id="rect2147" />
    <filter
       inkscape:collect="always"
       style="color-interpolation-filters:sRGB"
       id="filter2590"
       x="-1.4442307e-05"
       width="1.0000288"
       y="-2.863225e-05"
       height="1.0000573">
      <feGaussianBlur
         inkscape:collect="always"
         stdDeviation="0.00096834367"
         id="feGaussianBlur2592" />
    </filter>
    <rect
       x="85.800598"
       y="30.616072"
       width="100.72207"
       height="104.3157"
       id="rect3114" />
    <rect
       x="85.800598"
       y="30.616072"
       width="100.72207"
       height="104.3157"
       id="rect4811" />
    <rect
       x="85.800598"
       y="30.616072"
       width="100.72207"
       height="104.3157"
       id="rect2163-0" />
    <rect
       x="85.800598"
       y="30.616072"
       width="100.72207"
       height="104.3157"
       id="rect5018" />
    <rect
       x="85.800598"
       y="30.616072"
       width="100.72207"
       height="104.3157"
       id="rect5045" />
    <filter
       style="color-interpolation-filters:sRGB"
       inkscape:label="Drop Shadow"
       id="filter5921">
      <feFlood
         flood-opacity="1"
         flood-color="rgb(87,91,96)"
         result="flood"
         id="feFlood5911" />
      <feComposite
         in="flood"
         in2="SourceGraphic"
         operator="out"
         result="composite1"
         id="feComposite5913" />
      <feGaussianBlur
         in="composite1"
         stdDeviation="0.6"
         result="blur"
         id="feGaussianBlur5915" />
      <feOffset
         dx="0.3"
         dy="0.3"
         result="offset"
         id="feOffset5917" />
      <feComposite
         in="offset"
         in2="SourceGraphic"
         operator="atop"
         result="composite2"
         id="feComposite5919" />
    </filter>
    <rect
       x="85.800598"
       y="30.616072"
       width="100.72207"
       height="104.3157"
       id="rect6167" />
    <linearGradient
       inkscape:collect="always"
       xlink:href="#linearGradient6197"
       id="linearGradient6201"
       gradientUnits="userSpaceOnUse"
       x1="126.86107"
       y1="74.456688"
       x2="75.876595"
       y2="38.878345" />
    <filter
       style="color-interpolation-filters:sRGB"
       inkscape:label="Inner Glow Arrows"
       id="filter6865">
      <feFlood
         flood-opacity="1"
         flood-color="rgb(255,255,255)"
         result="flood"
         id="feFlood6855" />
      <feComposite
         in="flood"
         in2="SourceGraphic"
         operator="out"
         result="composite1"
         id="feComposite6857" />
      <feGaussianBlur
         in="composite1"
         stdDeviation="0.20000000000000001"
         result="blur"
         id="feGaussianBlur6859" />
      <feOffset
         dx="-0.3"
         dy="-0.3"
         result="offset"
         id="feOffset6861" />
      <feComposite
         in="offset"
         in2="SourceGraphic"
         operator="in"
         result="composite2"
         id="feComposite6863" />
    </filter>
    <rect
       x="85.800598"
       y="30.616072"
       width="100.72207"
       height="104.3157"
       id="rect6963" />
    <filter
       style="color-interpolation-filters:sRGB"
       inkscape:label="Inner Shadow Arrows"
       id="filter7155">
      <feFlood
         flood-opacity="1"
         flood-color="rgb(38,42,48)"
         result="flood"
         id="feFlood7145" />
      <feComposite
         in="flood"
         in2="SourceGraphic"
         operator="out"
         result="composite1"
         id="feComposite7147" />
      <feGaussianBlur
         in="composite1"
         stdDeviation="0.20000000000000001"
         result="blur"
         id="feGaussianBlur7149" />
      <feOffset
         dx="0.3"
         dy="0.3"
         result="offset"
         id="feOffset7151" />
      <feComposite
         in="offset"
         in2="SourceGraphic"
         operator="in"
         result="composite2"
         id="feComposite7153" />
    </filter>
    <rect
       x="85.800598"
       y="30.616072"
       width="100.72207"
       height="104.3157"
       id="rect7389" />
    <filter
       style="color-interpolation-filters:sRGB"
       inkscape:label="Drop Shadow"
       id="filter7917"
       x="-0.2"
       width="1.4"
       y="-0.2"
       height="1.4">
      <feFlood
         flood-opacity="1"
         flood-color="rgb(38,42,48)"
         result="flood"
         id="feFlood7907" />
      <feComposite
         in="flood"
         in2="SourceGraphic"
         operator="in"
         result="composite1"
         id="feComposite7909" />
      <feGaussianBlur
         in="composite1"
         stdDeviation="1"
         result="blur"
         id="feGaussianBlur7911" />
      <feOffset
         dx="0.5"
         dy="0.5"
         result="offset"
         id="feOffset7913"
         preserveAlpha="false" />
      <feComposite
         in="offset"
         in2="SourceGraphic"
         operator="out"
         result="composite2"
         id="feComposite7915" />
    </filter>
    <filter
       style="color-interpolation-filters:sRGB"
       inkscape:label="Drop Shadow"
       id="filter384">
      <feFlood
         flood-opacity="1"
         flood-color="rgb(255,255,255)"
         result="flood"
         id="feFlood374" />
      <feComposite
         in="flood"
         in2="SourceGraphic"
         operator="in"
         result="composite1"
         id="feComposite376" />
      <feGaussianBlur
         in="composite1"
         stdDeviation="1"
         result="blur"
         id="feGaussianBlur378" />
      <feOffset
         dx="-0.5"
         dy="-0.5"
         result="offset"
         id="feOffset380" />
      <feComposite
         in="offset"
         in2="SourceGraphic"
         operator="out"
         result="composite2"
         id="feComposite382" />
    </filter>
    <filter
       inkscape:collect="always"
       style="color-interpolation-filters:sRGB"
       id="filter1495"
       x="-0.043724179"
       width="1.0874484"
       y="-0.059741672"
       height="1.1194834">
      <feGaussianBlur
         inkscape:collect="always"
         stdDeviation="3.1507613"
         id="feGaussianBlur1497" />
    </filter>
    <rect
       x="85.800598"
       y="30.616072"
       width="100.72207"
       height="104.3157"
       id="rect1551" />
    <rect
       x="85.800598"
       y="30.616072"
       width="100.72207"
       height="104.3157"
       id="rect1553" />
    <rect
       x="85.800598"
       y="30.616072"
       width="100.72207"
       height="104.3157"
       id="rect1555" />
    <rect
       x="85.800598"
       y="30.616072"
       width="100.72207"
       height="104.3157"
       id="rect1557" />
    <linearGradient
       inkscape:collect="always"
       xlink:href="#linearGradient3601"
       id="linearGradient3715"
       gradientUnits="userSpaceOnUse"
       x1="100.72314"
       y1="258.32751"
       x2="100.72314"
       y2="139.25038"
       gradientTransform="translate(-1.0583333,-0.52916667)" />
    <mask
       maskUnits="userSpaceOnUse"
       id="mask-powermask-path-effect3747">
      <path
         id="mask-powermask-path-effect3747_box"
         style="fill:#ffffff;fill-opacity:1"
         d="M -22.060681,112.39713 H 222.06067 V 291.60271 H -22.060681 Z" />
      <circle
         style="fill:url(#linearGradient3745);fill-opacity:1;stroke-width:0.290751"
         id="circle3743"
         cx="98.941666"
         cy="235.50844"
         r="103.353" />
    </mask>
    <linearGradient
       inkscape:collect="always"
       xlink:href="#linearGradient3739"
       id="linearGradient3745"
       gradientUnits="userSpaceOnUse"
       gradientTransform="translate(-1.0583333,-0.52916664)"
       x1="100.72314"
       y1="250.05928"
       x2="100.72314"
       y2="55.017685" />
    <filter
       id="mask-powermask-path-effect3747_inverse"
       inkscape:label="filtermask-powermask-path-effect3747"
       style="color-interpolation-filters:sRGB"
       height="100"
       width="100"
       x="-50"
       y="-50">
      <feColorMatrix
         id="mask-powermask-path-effect3747_primitive1"
         values="1"
         type="saturate"
         result="fbSourceGraphic" />
      <feColorMatrix
         id="mask-powermask-path-effect3747_primitive2"
         values="-1 0 0 0 1 0 -1 0 0 1 0 0 -1 0 1 0 0 0 1 0 "
         in="fbSourceGraphic" />
    </filter>
    <rect
       x="85.800598"
       y="30.616072"
       width="100.72207"
       height="104.3157"
       id="rect3845" />
    <rect
       x="85.800598"
       y="30.616072"
       width="100.72207"
       height="104.3157"
       id="rect3847" />
    <rect
       x="85.800598"
       y="30.616072"
       width="100.72207"
       height="104.3157"
       id="rect3849" />
    <rect
       x="85.800598"
       y="30.616072"
       width="100.72207"
       height="104.3157"
       id="rect3851" />
    <rect
       x="85.800598"
       y="30.616072"
       width="100.72207"
       height="104.3157"
       id="rect227" />
    <rect
       x="85.800598"
       y="30.616072"
       width="100.72207"
       height="104.3157"
       id="rect229" />
    <rect
       x="85.800598"
       y="30.616072"
       width="100.72207"
       height="104.3157"
       id="rect231" />
    <rect
       x="85.800598"
       y="30.616072"
       width="100.72207"
       height="104.3157"
       id="rect233" />
    <linearGradient
       inkscape:collect="always"
       xlink:href="#linearGradient1247"
       id="linearGradient1253"
       x1="152.71773"
       y1="4.6689224"
       x2="267.94604"
       y2="4.6689224"
       gradientUnits="userSpaceOnUse" />
    <filter
       inkscape:collect="always"
       style="color-interpolation-filters:sRGB"
       id="filter1255"
       x="-0.0099975936"
       width="1.0199952"
       y="-0.0093532502"
       height="1.0187065">
      <feGaussianBlur
         inkscape:collect="always"
         stdDeviation="0.55344928"
         id="feGaussianBlur1257" />
    </filter>
    <rect
       x="85.800598"
       y="30.616072"
       width="100.72207"
       height="104.3157"
       id="rect1274" />
    <rect
       x="85.800598"
       y="30.616072"
       width="100.72207"
       height="104.3157"
       id="rect1382" />
    <rect
       x="85.800598"
       y="30.616072"
       width="100.72207"
       height="104.3157"
       id="rect1390" />
    <rect
       x="85.800598"
       y="30.616072"
       width="100.72207"
       height="104.3157"
       id="rect1437" />
    <rect
       x="85.800598"
       y="30.616072"
       width="100.72207"
       height="104.3157"
       id="rect1439" />
    <rect
       x="85.800598"
       y="30.616072"
       width="100.72207"
       height="104.3157"
       id="rect1441" />
    <rect
       x="85.800598"
       y="30.616072"
       width="100.72207"
       height="104.3157"
       id="rect1443" />
    <rect
       x="85.800598"
       y="30.616072"
       width="100.72207"
       height="104.3157"
       id="rect172" />
    <rect
       x="85.800598"
       y="30.616072"
       width="100.72207"
       height="104.3157"
       id="rect174" />
    <filter
       inkscape:collect="always"
       style="color-interpolation-filters:sRGB"
       id="filter3038"
       x="-0.068684002"
       width="1.137368"
       y="-0.062951261"
       height="1.1259025">
      <feGaussianBlur
         inkscape:collect="always"
         stdDeviation="0.88912198"
         id="feGaussianBlur3040" />
    </filter>
    <filter
       inkscape:collect="always"
       style="color-interpolation-filters:sRGB"
       id="filter3148"
       x="-0.06868402"
       width="1.137368"
       y="-0.062951246"
       height="1.1259025">
      <feGaussianBlur
         inkscape:collect="always"
         stdDeviation="0.88912188"
         id="feGaussianBlur3150" />
    </filter>
  </defs>
  <sodipodi:namedview
     id="base"
     pagecolor="#ffffff"
     bordercolor="#666666"
     borderopacity="1.0"
     inkscape:pageopacity="0.0"
     inkscape:pageshadow="2"
     inkscape:zoom="0.51199933"
     inkscape:cx="365.10381"
     inkscape:cy="573.9303"
     inkscape:document-units="mm"
     inkscape:current-layer="layer5"
     inkscape:document-rotation="0"
     showgrid="false"
     inkscape:window-width="1920"
     inkscape:window-height="1011"
     inkscape:window-x="-8"
     inkscape:window-y="38"
     inkscape:window-maximized="1"
     inkscape:snap-bbox="false"
     inkscape:object-paths="true"
     inkscape:snap-midpoints="true"
     inkscape:snap-object-midpoints="true"
     inkscape:snap-center="true"
     inkscape:snap-page="true"
     inkscape:snap-global="true"
     inkscape:bbox-paths="false"
     units="px"
     borderlayer="false" />
  <metadata
     id="metadata5">
    <rdf:RDF>
      <cc:Work
         rdf:about="">
        <dc:format>image/svg+xml</dc:format>
        <dc:type
           rdf:resource="http://purl.org/dc/dcmitype/StillImage" />
        <dc:title>Icon</dc:title>
      </cc:Work>
    </rdf:RDF>
  </metadata>
  <g
     inkscape:groupmode="layer"
     id="layer6"
     inkscape:label="maskable_bg_top"
     style="display:none;opacity:0.998"
     sodipodi:insensitive="true">
    <rect
       style="display:inline;mix-blend-mode:normal;fill:#9567f1;fill-opacity:1;stroke-width:0.176849"
       id="rect326-2"
       width="211.87366"
       height="164.84804"
       x="-10.68683"
       y="-7.8446183"
       ry="2.8476229" />
  </g>
  <g
     inkscape:groupmode="layer"
     id="layer4"
     inkscape:label="maskable_bg_bottom"
     style="display:none;mix-blend-mode:normal"
     sodipodi:insensitive="true">
    <rect
       style="fill:#621eec;fill-opacity:1;stroke-width:0.0820861"
       id="rect326"
       width="199.4713"
       height="37.723846"
       x="-5.1676488"
       y="155.54626"
       ry="0.65165031" />
  </g>
  <g
     inkscape:groupmode="layer"
     id="layer5"
     inkscape:label="Long Shadow"
     style="display:inline;opacity:0.24358974;mix-blend-mode:hard-light;filter:url(#filter1255)"
     sodipodi:insensitive="true">
    <rect
       style="display:inline;mix-blend-mode:normal;fill:url(#linearGradient1253);fill-opacity:1;stroke-width:0.198707"
       id="rect1176"
       width="115.22831"
       height="99.480087"
       x="152.71773"
       y="-45.071121"
       ry="15.882751"
       transform="matrix(0.77644974,0.63017918,-0.55649427,0.83085145,0,0)" />
  </g>
  <g
     inkscape:groupmode="layer"
     id="layer1"
     inkscape:label="Triangle_Main"
     style="display:none"
     transform="translate(2.0535843,-18.855094)">
    <g
       inkscape:groupmode="layer"
       id="g4661"
       inkscape:label="Base_Triangle_Outer_Glow"
       style="display:inline;opacity:0.294872;filter:url(#filter1495)"
       sodipodi:insensitive="true">
      <path
         id="path4659"
         style="opacity:1;fill:#ecf0f3;fill-opacity:1;stroke:none;stroke-width:0.235007;stroke-opacity:1"
         d="m 36.610048,81.576169 c -2.564608,-0.100197 -2.818251,3.0003 -2.032185,4.128432 l 56.325432,80.836049 c 1.304128,1.87164 3.403924,1.87164 4.708052,0 L 151.93678,85.704601 c 0.78607,-1.128132 -0.20626,-4.365507 -2.03234,-4.128432 z"
         sodipodi:nodetypes="csccccc" />
    </g>
    <g
       inkscape:groupmode="layer"
       id="g7495"
       inkscape:label="Base_Triangle_Drop_Shadow"
       style="display:inline;opacity:0.733974;mix-blend-mode:normal"
       sodipodi:insensitive="true">
      <path
         id="path7493"
         style="opacity:1;fill:#9567f1;fill-opacity:1;stroke:none;stroke-width:0.344361;stroke-opacity:1;filter:url(#filter7917)"
         d="m 8.5978954,42.963645 c -3.75798,-0.146822 -4.12964,4.396409 -2.9778,6.049487 L 88.155055,167.46405 c 1.91097,2.74255 4.98786,2.74255 6.89883,0 L 177.58885,49.013132 c 1.15185,-1.653078 -0.30224,-6.396879 -2.97804,-6.049487 z"
         sodipodi:nodetypes="csccccc"
         transform="matrix(0.68244324,0,0,0.68244324,30.74247,52.255921)" />
    </g>
    <g
       inkscape:groupmode="layer"
       id="g276"
       inkscape:label="Base_Triangle_Drop_Glow"
       style="display:inline;opacity:0.440716;mix-blend-mode:normal"
       sodipodi:insensitive="true">
      <path
         id="path274"
         style="opacity:1;fill:#9567f1;fill-opacity:1;stroke:none;stroke-width:0.344361;stroke-opacity:1;filter:url(#filter384)"
         d="m 8.5978854,42.963645 c -3.75798,-0.146822 -4.12964,4.396409 -2.9778,6.049487 L 88.155045,167.46405 c 1.91098,2.74255 4.98786,2.74255 6.89883,0 L 177.58884,49.013132 c 1.15185,-1.653078 -0.30224,-6.396879 -2.97804,-6.049487 z"
         sodipodi:nodetypes="csccccc"
         transform="matrix(0.68244324,0,0,0.68244324,30.742475,52.255921)" />
    </g>
    <g
       inkscape:groupmode="layer"
       id="layer3"
       inkscape:label="Base_Triangle"
       style="display:inline;filter:url(#filter2590)">
      <path
         id="rect2571"
         style="opacity:1;fill:#ecf0f3;fill-opacity:1;stroke:none;stroke-width:0.235007;stroke-opacity:1"
         d="m 36.610047,81.576169 c -2.564608,-0.100197 -2.818251,3.0003 -2.032185,4.128432 l 56.325432,80.836049 c 1.304128,1.87164 3.403924,1.87164 4.708052,0 L 151.93678,85.704601 c 0.78607,-1.128132 -0.20626,-4.365507 -2.03234,-4.128432 z"
         sodipodi:nodetypes="csccccc" />
    </g>
    <g
       inkscape:groupmode="layer"
       id="layer2"
       inkscape:label="Arrows"
       style="display:inline">
      <g
         inkscape:label="Arrows Outer Glow"
         inkscape:groupmode="layer"
         id="g3060"
         style="display:inline;opacity:0.25;filter:url(#filter3148)">
        <g
           aria-label="⇅"
           transform="matrix(0.91287769,0,0,0.91287769,-4.3590624,61.051935)"
           id="g3058"
           style="font-style:normal;font-variant:normal;font-weight:normal;font-stretch:normal;font-size:50.8px;line-height:1.25;font-family:Calibri;-inkscape-font-specification:Calibri;font-variant-ligatures:normal;font-variant-caps:normal;font-variant-numeric:normal;font-variant-east-asian:normal;white-space:pre;shape-inside:url(#rect174);fill:#9567f1;fill-opacity:1;stroke:none">
          <path
             d="M 95.449805,75.817643 V 46.333137 l -0.113686,-0.444976 -0.298727,-0.145333 -0.420272,0.185203 -4.089318,3.208 -0.519041,0.224231 -0.558259,-0.04278 -0.478814,-0.300699 -0.01662,-0.01774 -0.265272,-0.49432 0.0029,-0.551551 0.270378,-0.491547 6.648348,-6.953319 0.513641,-0.386081 0.642067,-0.274424 0.634017,-0.104437 0.429538,0.104437 0.496719,0.274424 0.458326,0.386081 6.64835,6.953319 0.27038,0.491547 0.003,0.55155 -0.26527,0.49432 -0.0166,0.01775 -0.47863,0.30046 -0.55776,0.04215 -0.51835,-0.225112 -4.067257,-3.204508 -0.419579,-0.186084 -0.298235,0.144706 -0.113498,0.444738 v 29.484506 l -0.144494,0.534161 -0.379678,0.379678 -0.534161,0.144494 h -1.40581 L 95.973977,76.731482 95.594299,76.351804 Z M 115.96328,40.801692 v 29.484506 l 0.11369,0.444976 0.29872,0.145333 0.42027,-0.185203 4.08933,-3.207999 0.51904,-0.224231 0.55825,0.04278 0.47882,0.300699 0.0166,0.01774 0.26511,0.494168 -0.003,0.551151 -0.27097,0.490984 -6.67081,6.955551 -0.51423,0.385518 -0.64249,0.274023 -0.63417,0.104285 -0.42954,-0.104437 -0.49673,-0.274424 -0.45832,-0.386081 -6.64835,-6.953319 -0.27038,-0.491546 -0.003,-0.551551 0.26527,-0.49432 0.0166,-0.01775 0.47881,-0.300698 0.55826,-0.04278 0.51904,0.224231 4.08933,3.207999 0.42027,0.185203 0.29872,-0.145333 0.11369,-0.444976 V 40.801692 l 0.14449,-0.534161 0.37968,-0.379678 0.53416,-0.144494 h 1.4056 l 0.53416,0.144494 0.37968,0.379678 z"
             style="font-style:normal;font-variant:normal;font-weight:normal;font-stretch:normal;font-family:SimSun;-inkscape-font-specification:SimSun;shape-inside:url(#rect5045);fill:#9567f1;fill-opacity:1"
             id="path3056"
             inkscape:path-effect="#path-effect3062"
             inkscape:original-d="M 95.449805,76.875976 V 45.274804 l -5.754688,4.514454 -1.463476,-1.562696 8.111132,-8.483203 h 1.711524 l 8.111133,8.483203 -1.46348,1.562696 -5.72988,-4.514454 V 76.875976 Z M 115.96328,39.743359 v 31.601172 l 5.75469,-4.514453 1.46347,1.562695 -8.13593,8.483203 h -1.71153 l -8.11113,-8.483203 1.46348,-1.562695 5.75469,4.514453 V 39.743359 Z" />
        </g>
      </g>
      <g
         inkscape:label="Arrows_Base"
         inkscape:groupmode="layer"
         id="g3046"
         style="display:inline;opacity:1">
        <g
           aria-label="⇅"
           transform="matrix(0.91287769,0,0,0.91287769,-4.3590624,61.051935)"
           id="g3044"
           style="font-style:normal;font-variant:normal;font-weight:normal;font-stretch:normal;font-size:50.8px;line-height:1.25;font-family:Calibri;-inkscape-font-specification:Calibri;font-variant-ligatures:normal;font-variant-caps:normal;font-variant-numeric:normal;font-variant-east-asian:normal;white-space:pre;shape-inside:url(#rect174);fill:#9567f1;fill-opacity:1;stroke:none">
          <path
             d="M 95.449805,75.817643 V 46.333137 l -0.113686,-0.444976 -0.298727,-0.145333 -0.420272,0.185203 -4.089318,3.208 -0.519041,0.224231 -0.558259,-0.04278 -0.478814,-0.300699 -0.01662,-0.01774 -0.265272,-0.49432 0.0029,-0.551551 0.270378,-0.491547 6.648348,-6.953319 0.513641,-0.386081 0.642067,-0.274424 0.634017,-0.104437 0.429538,0.104437 0.496719,0.274424 0.458326,0.386081 6.64835,6.953319 0.27038,0.491547 0.003,0.55155 -0.26527,0.49432 -0.0166,0.01775 -0.47863,0.30046 -0.55776,0.04215 -0.51835,-0.225112 -4.067257,-3.204508 -0.419579,-0.186084 -0.298235,0.144706 -0.113498,0.444738 v 29.484506 l -0.144494,0.534161 -0.379678,0.379678 -0.534161,0.144494 h -1.40581 L 95.973977,76.731482 95.594299,76.351804 Z M 115.96328,40.801692 v 29.484506 l 0.11369,0.444976 0.29872,0.145333 0.42027,-0.185203 4.08933,-3.207999 0.51904,-0.224231 0.55825,0.04278 0.47882,0.300699 0.0166,0.01774 0.26511,0.494168 -0.003,0.551151 -0.27097,0.490984 -6.67081,6.955551 -0.51423,0.385518 -0.64249,0.274023 -0.63417,0.104285 -0.42954,-0.104437 -0.49673,-0.274424 -0.45832,-0.386081 -6.64835,-6.953319 -0.27038,-0.491546 -0.003,-0.551551 0.26527,-0.49432 0.0166,-0.01775 0.47881,-0.300698 0.55826,-0.04278 0.51904,0.224231 4.08933,3.207999 0.42027,0.185203 0.29872,-0.145333 0.11369,-0.444976 V 40.801692 l 0.14449,-0.534161 0.37968,-0.379678 0.53416,-0.144494 h 1.4056 l 0.53416,0.144494 0.37968,0.379678 z"
             style="font-style:normal;font-variant:normal;font-weight:normal;font-stretch:normal;font-family:SimSun;-inkscape-font-specification:SimSun;shape-inside:url(#rect5045);fill:#9567f1;fill-opacity:1"
             id="path3042"
             inkscape:path-effect="#path-effect3048"
             inkscape:original-d="M 95.449805,76.875976 V 45.274804 l -5.754688,4.514454 -1.463476,-1.562696 8.111132,-8.483203 h 1.711524 l 8.111133,8.483203 -1.46348,1.562696 -5.72988,-4.514454 V 76.875976 Z M 115.96328,39.743359 v 31.601172 l 5.75469,-4.514453 1.46347,1.562695 -8.13593,8.483203 h -1.71153 l -8.11113,-8.483203 1.46348,-1.562695 5.75469,4.514453 V 39.743359 Z" />
        </g>
      </g>
    </g>
  </g>
  <g
     inkscape:groupmode="layer"
     id="g170"
     inkscape:label="Triangle_Inverted"
     style="display:inline"
     transform="translate(2.0535843,-18.855094)">
    <g
       inkscape:groupmode="layer"
       id="g138"
       inkscape:label="Base_Triangle_Outer_Glow"
       style="display:inline;opacity:0.294872;filter:url(#filter1495)"
       sodipodi:insensitive="true">
      <path
         id="path136"
         style="opacity:1;fill:#9567f1;fill-opacity:1;stroke:none;stroke-width:0.235007;stroke-opacity:1"
         d="m 36.610048,81.576169 c -2.564608,-0.100197 -2.818251,3.0003 -2.032185,4.128432 l 56.325432,80.836049 c 1.304128,1.87164 3.403924,1.87164 4.708052,0 L 151.93678,85.704601 c 0.78607,-1.128132 -0.20626,-4.365507 -2.03234,-4.128432 z"
         sodipodi:nodetypes="csccccc" />
    </g>
    <g
       inkscape:groupmode="layer"
       id="g142"
       inkscape:label="Base_Triangle_Drop_Shadow"
       style="display:inline;opacity:0.733974;mix-blend-mode:normal"
       sodipodi:insensitive="true">
      <path
         id="path140"
         style="opacity:1;fill:#9567f1;fill-opacity:1;stroke:none;stroke-width:0.344361;stroke-opacity:1;filter:url(#filter7917)"
         d="m 8.5978954,42.963645 c -3.75798,-0.146822 -4.12964,4.396409 -2.9778,6.049487 L 88.155055,167.46405 c 1.91097,2.74255 4.98786,2.74255 6.89883,0 L 177.58885,49.013132 c 1.15185,-1.653078 -0.30224,-6.396879 -2.97804,-6.049487 z"
         sodipodi:nodetypes="csccccc"
         transform="matrix(0.68244324,0,0,0.68244324,30.74247,52.255921)" />
    </g>
    <g
       inkscape:groupmode="layer"
       id="g146"
       inkscape:label="Base_Triangle_Drop_Glow"
       style="display:inline;opacity:0.440716;mix-blend-mode:normal"
       sodipodi:insensitive="true">
      <path
         id="path144"
         style="opacity:1;fill:#9567f1;fill-opacity:1;stroke:none;stroke-width:0.344361;stroke-opacity:1;filter:url(#filter384)"
         d="m 8.5978854,42.963645 c -3.75798,-0.146822 -4.12964,4.396409 -2.9778,6.049487 L 88.155045,167.46405 c 1.91098,2.74255 4.98786,2.74255 6.89883,0 L 177.58884,49.013132 c 1.15185,-1.653078 -0.30224,-6.396879 -2.97804,-6.049487 z"
         sodipodi:nodetypes="csccccc"
         transform="matrix(0.68244324,0,0,0.68244324,30.742475,52.255921)" />
    </g>
    <g
       inkscape:groupmode="layer"
       id="g150"
       inkscape:label="Base_Triangle"
       style="display:inline;filter:url(#filter2590)"
       sodipodi:insensitive="true">
      <path
         id="path148"
         style="opacity:1;fill:#9567f1;fill-opacity:1;stroke:none;stroke-width:0.235007;stroke-opacity:1"
         d="m 36.610047,81.576169 c -2.564608,-0.100197 -2.818251,3.0003 -2.032185,4.128432 l 56.325432,80.836049 c 1.304128,1.87164 3.403924,1.87164 4.708052,0 L 151.93678,85.704601 c 0.78607,-1.128132 -0.20626,-4.365507 -2.03234,-4.128432 z"
         sodipodi:nodetypes="csccccc" />
    </g>
    <g
       inkscape:groupmode="layer"
       id="g168"
       inkscape:label="Arrows"
       style="display:inline">
      <g
         inkscape:label="Arrows Outer Glow"
         inkscape:groupmode="layer"
         id="g2918"
         style="display:inline;opacity:0.25;filter:url(#filter3038)">
        <g
           aria-label="⇅"
           transform="matrix(0.91287769,0,0,0.91287769,-4.3590624,61.051935)"
           id="g2916"
           style="font-style:normal;font-variant:normal;font-weight:normal;font-stretch:normal;font-size:50.8px;line-height:1.25;font-family:Calibri;-inkscape-font-specification:Calibri;font-variant-ligatures:normal;font-variant-caps:normal;font-variant-numeric:normal;font-variant-east-asian:normal;white-space:pre;shape-inside:url(#rect174);fill:#ecf0f3;fill-opacity:1;stroke:none">
          <path
             d="m 95.449805,75.817643 0,-29.484506 -0.113686,-0.444976 -0.298727,-0.145333 -0.420272,0.185203 -4.089318,3.208 -0.519041,0.224231 -0.558259,-0.04278 -0.478814,-0.300699 -0.01662,-0.01774 -0.265272,-0.49432 0.0029,-0.551551 0.270378,-0.491547 6.648348,-6.953319 0.513641,-0.386081 0.642067,-0.274424 0.634017,-0.104437 0.429538,0.104437 0.496719,0.274424 0.458326,0.386081 6.648351,6.953319 0.27038,0.491547 0.003,0.55155 -0.26527,0.49432 -0.0166,0.01775 -0.47863,0.30046 -0.55776,0.04215 -0.51835,-0.225112 -4.067258,-3.204508 -0.419579,-0.186084 -0.298235,0.144706 -0.113498,0.444738 0,29.484506 -0.144494,0.534161 -0.379678,0.379678 -0.534161,0.144494 H 96.508138 L 95.973977,76.731482 95.594299,76.351804 Z M 115.96328,40.801692 v 29.484506 l 0.11369,0.444976 0.29872,0.145333 0.42027,-0.185203 4.08933,-3.207999 0.51904,-0.224231 0.55825,0.04278 0.47882,0.300699 0.0166,0.01774 0.26511,0.494168 -0.003,0.551151 -0.27097,0.490984 -6.67081,6.955551 -0.51423,0.385518 -0.64249,0.274023 -0.63417,0.104285 -0.42954,-0.104437 -0.49673,-0.274424 -0.45832,-0.386081 -6.64835,-6.953319 -0.27038,-0.491546 -0.003,-0.551551 0.26527,-0.49432 0.0166,-0.01775 0.47881,-0.300698 0.55826,-0.04278 0.51904,0.224231 4.08933,3.207999 0.42027,0.185203 0.29872,-0.145333 0.11369,-0.444976 V 40.801692 l 0.14449,-0.534161 0.37968,-0.379678 0.53416,-0.144494 h 1.4056 l 0.53416,0.144494 0.37968,0.379678 z"
             style="font-style:normal;font-variant:normal;font-weight:normal;font-stretch:normal;font-family:SimSun;-inkscape-font-specification:SimSun;shape-inside:url(#rect5045);fill:#ecf0f3;fill-opacity:1"
             id="path2914"
             inkscape:path-effect="#path-effect2920"
             inkscape:original-d="M 95.449805,76.875976 V 45.274804 l -5.754688,4.514454 -1.463476,-1.562696 8.111132,-8.483203 h 1.711524 l 8.111133,8.483203 -1.46348,1.562696 -5.72988,-4.514454 V 76.875976 Z M 115.96328,39.743359 v 31.601172 l 5.75469,-4.514453 1.46347,1.562695 -8.13593,8.483203 h -1.71153 l -8.11113,-8.483203 1.46348,-1.562695 5.75469,4.514453 V 39.743359 Z" />
        </g>
      </g>
      <g
         inkscape:label="Arrows_Base"
         inkscape:groupmode="layer"
         id="g166"
         style="display:inline;opacity:1">
        <g
           aria-label="⇅"
           transform="matrix(0.91287769,0,0,0.91287769,-4.3590624,61.051935)"
           id="text164"
           style="font-style:normal;font-variant:normal;font-weight:normal;font-stretch:normal;font-size:50.8px;line-height:1.25;font-family:Calibri;-inkscape-font-specification:Calibri;font-variant-ligatures:normal;font-variant-caps:normal;font-variant-numeric:normal;font-variant-east-asian:normal;white-space:pre;shape-inside:url(#rect174);fill:#ecf0f3;fill-opacity:1;stroke:none">
          <path
             d="m 95.449805,75.817643 0,-29.484506 -0.113686,-0.444976 -0.298727,-0.145333 -0.420272,0.185203 -4.089318,3.208 -0.519041,0.224231 -0.558259,-0.04278 -0.478814,-0.300699 -0.01662,-0.01774 -0.265272,-0.49432 0.0029,-0.551551 0.270378,-0.491547 6.648348,-6.953319 0.513641,-0.386081 0.642067,-0.274424 0.634017,-0.104437 0.429538,0.104437 0.496719,0.274424 0.458326,0.386081 6.648351,6.953319 0.27038,0.491547 0.003,0.55155 -0.26527,0.49432 -0.0166,0.01775 -0.47863,0.30046 -0.55776,0.04215 -0.51835,-0.225112 -4.067258,-3.204508 -0.419579,-0.186084 -0.298235,0.144706 -0.113498,0.444738 0,29.484506 -0.144494,0.534161 -0.379678,0.379678 -0.534161,0.144494 H 96.508138 L 95.973977,76.731482 95.594299,76.351804 Z M 115.96328,40.801692 v 29.484506 l 0.11369,0.444976 0.29872,0.145333 0.42027,-0.185203 4.08933,-3.207999 0.51904,-0.224231 0.55825,0.04278 0.47882,0.300699 0.0166,0.01774 0.26511,0.494168 -0.003,0.551151 -0.27097,0.490984 -6.67081,6.955551 -0.51423,0.385518 -0.64249,0.274023 -0.63417,0.104285 -0.42954,-0.104437 -0.49673,-0.274424 -0.45832,-0.386081 -6.64835,-6.953319 -0.27038,-0.491546 -0.003,-0.551551 0.26527,-0.49432 0.0166,-0.01775 0.47881,-0.300698 0.55826,-0.04278 0.51904,0.224231 4.08933,3.207999 0.42027,0.185203 0.29872,-0.145333 0.11369,-0.444976 V 40.801692 l 0.14449,-0.534161 0.37968,-0.379678 0.53416,-0.144494 h 1.4056 l 0.53416,0.144494 0.37968,0.379678 z"
             style="font-style:normal;font-variant:normal;font-weight:normal;font-stretch:normal;font-family:SimSun;-inkscape-font-specification:SimSun;shape-inside:url(#rect5045);fill:#ecf0f3;fill-opacity:1"
             id="path999"
             inkscape:path-effect="#path-effect2912"
             inkscape:original-d="M 95.449805,76.875976 V 45.274804 l -5.754688,4.514454 -1.463476,-1.562696 8.111132,-8.483203 h 1.711524 l 8.111133,8.483203 -1.46348,1.562696 -5.72988,-4.514454 V 76.875976 Z M 115.96328,39.743359 v 31.601172 l 5.75469,-4.514453 1.46347,1.562695 -8.13593,8.483203 h -1.71153 l -8.11113,-8.483203 1.46348,-1.562695 5.75469,4.514453 V 39.743359 Z" />
        </g>
      </g>
    </g>
  </g>
</svg>
