<svg xmlns="http://www.w3.org/2000/svg" viewBox="0 0 31.87 18.24">
    <defs>
        <style>.cls-1{fill:#9567f1;}</style>
    </defs>
    <path class="cls-1" d="M31.79,12.34,28,18a.5.5,0,0,1-.42.23.52.52,0,0,1-.42-.23l-3.76-5.67a.5.5,0,1,1,.83-.56l2.85,4.3V.5a.5.5,0,0,1,1,0V16.08L31,11.78a.5.5,0,1,1,.83.56Z"/>
    <path class="cls-1" d="M8.45,5.9a.5.5,0,0,1-.14.7A.53.53,0,0,1,8,6.68a.51.51,0,0,1-.42-.22L4.77,2.16V17.74a.5.5,0,0,1-1,0V2.16L.92,6.46A.5.5,0,1,1,.09,5.9L3.85.23a.53.53,0,0,1,.84,0Z"/>
</svg>