<?xml version="1.0" standalone="no"?>
<!DOCTYPE svg PUBLIC "-//W3C//DTD SVG 20010904//EN"
 "http://www.w3.org/TR/2001/REC-SVG-20010904/DTD/svg10.dtd">
<svg version="1.0" xmlns="http://www.w3.org/2000/svg"
 width="700.000000pt" height="700.000000pt" viewBox="0 0 700.000000 700.000000"
 preserveAspectRatio="xMidYMid meet">
<metadata>
Created by potrace 1.11, written by Peter Selinger 2001-2013
</metadata>
<g transform="translate(0.000000,700.000000) scale(0.100000,-0.100000)"
fill="#000000" stroke="none">
<path d="M1368 4680 c-25 -15 -42 -75 -30 -109 6 -16 479 -702 1053 -1526 744
-1068 1051 -1501 1072 -1511 34 -18 90 -12 130 14 33 23 -53 -99 974 1376 488
699 931 1335 985 1413 55 78 103 156 108 173 14 47 6 118 -17 148 l-20 27
-2119 2 c-1368 2 -2125 -1 -2136 -7z m1963 -692 c126 -131 144 -159 117 -186
-20 -20 -32 -15 -113 48 -43 33 -82 60 -86 60 -5 0 -9 -224 -9 -501 0 -326 -4
-507 -10 -520 -8 -14 -21 -19 -56 -19 -39 0 -46 3 -54 26 -6 15 -10 223 -10
520 0 272 -3 494 -6 494 -4 0 -43 -27 -86 -60 -83 -63 -96 -68 -116 -48 -25
25 -8 53 104 171 119 125 145 146 178 147 11 0 70 -53 147 -132z m463 116 c14
-14 16 -75 16 -520 0 -352 3 -504 11 -504 6 0 42 25 81 56 80 62 121 70 126
24 2 -20 -22 -51 -125 -158 -109 -113 -132 -132 -158 -132 -25 0 -50 21 -157
132 -102 106 -127 138 -125 158 1 19 9 26 29 28 19 2 45 -11 98 -52 40 -31 76
-56 81 -56 5 0 9 211 9 498 0 555 -2 542 65 542 18 0 41 -7 49 -16z"/>
</g>
</svg>
