<?xml version="1.0" standalone="no"?>
<!DOCTYPE svg PUBLIC "-//W3C//DTD SVG 20010904//EN"
 "http://www.w3.org/TR/2001/REC-SVG-20010904/DTD/svg10.dtd">
<svg version="1.0" xmlns="http://www.w3.org/2000/svg"
 width="700.000000pt" height="700.000000pt" viewBox="0 0 700.000000 700.000000"
 preserveAspectRatio="xMidYMid meet">
<metadata>
Created by potrace 1.11, written by Peter Selinger 2001-2013
</metadata>
<g transform="translate(0.000000,700.000000) scale(0.100000,-0.100000)"
fill="#000000" stroke="none">
<path d="M380 5471 c-19 -4 -45 -12 -56 -19 -44 -24 -67 -116 -44 -177 8 -21
2956 -4261 3082 -4432 44 -61 64 -75 131 -98 46 -16 50 -15 92 5 51 25 71 51
345 445 201 289 313 450 536 770 621 891 898 1289 1049 1505 162 233 501 718
757 1085 447 641 470 676 470 726 1 57 -41 152 -78 176 -27 17 -141 18 -3139
19 -1710 1 -3126 -1 -3145 -5z m2925 -651 l390 -390 -120 -120 -121 -120 -224
225 -225 226 -5 -1198 -5 -1198 -172 -3 c-168 -2 -173 -2 -173 18 0 11 5 20
10 20 7 0 10 392 10 1156 0 767 -3 1153 -10 1149 -6 -4 -10 7 -10 27 0 31 -9
23 -228 -195 l-227 -227 -120 120 c-66 66 -113 120 -105 120 8 0 187 172 397
383 l383 382 78 6 c42 3 79 6 82 7 3 1 181 -173 395 -388z m875 -821 c0 -1030
2 -1200 14 -1190 11 9 15 9 19 -1 5 -14 386 357 418 406 l18 30 117 -118 117
-118 -389 -389 -389 -389 -95 0 -95 0 -390 390 c-264 264 -384 390 -370 390
22 0 225 196 225 217 0 7 3 13 8 13 4 0 106 -99 226 -219 121 -121 223 -218
228 -215 4 3 8 531 8 1173 0 991 2 1170 14 1187 13 17 31 20 153 25 76 3 144
6 151 7 9 2 12 -244 12 -1199z"/>
</g>
</svg>
