<?xml version="1.0" standalone="no"?>
<!DOCTYPE svg PUBLIC "-//W3C//DTD SVG 20010904//EN"
 "http://www.w3.org/TR/2001/REC-SVG-20010904/DTD/svg10.dtd">
<svg version="1.0" xmlns="http://www.w3.org/2000/svg"
 width="700.000000pt" height="700.000000pt" viewBox="0 0 700.000000 700.000000"
 preserveAspectRatio="xMidYMid meet">
<metadata>
Created by potrace 1.11, written by Peter Selinger 2001-2013
</metadata>
<g transform="translate(0.000000,700.000000) scale(0.100000,-0.100000)"
fill="#000000" stroke="none">
<path d="M580 5672 c-62 -30 -88 -118 -55 -182 12 -24 2595 -3736 2845 -4090
69 -97 98 -120 150 -120 67 0 105 28 185 135 88 119 2760 3957 2788 4006 52
88 32 184 -48 237 l-48 32 -2891 0 c-2732 0 -2893 -1 -2926 -18z m2585 -254
c105 -106 262 -266 350 -355 l160 -163 -110 -110 -109 -109 -211 212 -210 212
-3 -1112 -2 -1113 -155 0 c-141 0 -176 6 -145 25 7 4 10 377 10 1086 0 713 -3
1079 -10 1079 -5 0 -10 10 -10 22 0 18 -50 -27 -215 -192 l-215 -215 -100 100
-100 100 352 353 c194 195 362 357 373 362 11 5 52 9 90 9 l70 1 190 -192z
m965 -919 c0 -668 4 -1108 9 -1105 5 4 11 0 14 -6 3 -8 91 72 208 190 113 111
209 202 214 202 6 0 53 -43 105 -95 l95 -95 -360 -360 -360 -360 -85 0 -85 0
-350 350 -350 350 110 110 110 110 207 -207 c114 -114 211 -204 215 -199 6 6
10 615 13 2194 0 9 31 12 123 12 67 0 129 5 137 10 8 5 18 10 23 10 4 0 7
-500 7 -1111z"/>
</g>
</svg>
