<?xml version="1.0" standalone="no"?>
<!DOCTYPE svg PUBLIC "-//W3C//DTD SVG 20010904//EN"
 "http://www.w3.org/TR/2001/REC-SVG-20010904/DTD/svg10.dtd">
<svg version="1.0" xmlns="http://www.w3.org/2000/svg"
 width="700.000000pt" height="700.000000pt" viewBox="0 0 700.000000 700.000000"
 preserveAspectRatio="xMidYMid meet">
<metadata>
Created by potrace 1.11, written by Peter Selinger 2001-2013
</metadata>
<g transform="translate(0.000000,700.000000) scale(0.100000,-0.100000)"
fill="#000000" stroke="none">
<path d="M113 5870 c-43 -26 -63 -68 -63 -132 0 -44 6 -64 33 -105 17 -27 770
-1108 1671 -2402 1212 -1738 1648 -2357 1673 -2372 27 -17 45 -20 89 -17 59 5
84 22 134 90 15 21 31 34 35 30 5 -4 5 -2 2 4 -4 6 4 23 17 37 13 14 21 28 19
31 -3 3 2 8 11 12 9 3 14 10 11 14 -3 4 8 22 24 39 16 17 26 31 23 31 -4 0 0
6 9 13 9 7 17 17 19 22 7 27 13 34 23 28 6 -3 7 -1 3 5 -4 7 3 22 16 35 13 13
24 25 25 27 1 3 5 13 8 22 4 10 12 15 18 11 6 -3 7 -1 3 5 -4 7 4 23 18 37 14
14 22 25 18 25 -4 0 4 10 18 21 14 11 18 17 11 13 -9 -4 -5 6 8 24 12 18 27
32 32 32 6 0 7 5 4 10 -3 6 1 13 9 16 9 3 14 10 11 14 -3 4 8 22 24 39 16 17
26 31 23 31 -4 0 0 6 9 13 9 7 16 14 17 17 4 22 16 39 25 33 6 -3 7 -1 3 5 -4
7 4 23 18 37 14 14 22 25 18 25 -4 0 4 10 18 21 14 11 18 17 11 13 -9 -4 -5 6
8 24 12 18 27 32 32 32 6 0 7 5 4 10 -3 6 1 13 9 16 9 3 14 10 11 14 -3 4 8
22 24 39 16 17 26 31 23 31 -4 0 2 7 12 15 11 8 16 15 10 15 -5 0 2 10 16 21
14 11 18 17 11 13 -9 -4 -5 6 8 24 12 18 27 32 32 32 5 0 8 4 6 9 -1 5 7 17
18 26 11 9 13 13 6 9 -9 -4 -6 6 8 24 12 18 27 32 32 32 6 0 8 4 4 9 -3 6 2
14 11 19 9 5 15 11 14 13 -4 12 14 38 23 32 6 -3 7 -1 3 5 -4 7 4 23 18 37 14
14 22 25 18 25 -4 0 4 10 18 21 14 11 18 17 11 13 -9 -4 -5 6 8 24 12 18 27
32 32 32 5 0 8 4 6 9 -1 5 7 17 18 26 11 9 13 13 6 9 -9 -4 -6 6 8 24 12 18
27 32 32 32 6 0 8 4 4 9 -3 6 2 14 11 19 9 5 15 11 14 13 -4 12 14 38 23 32 6
-3 7 -1 3 5 -4 7 4 23 18 37 14 14 22 25 18 25 -4 0 4 10 18 21 14 11 18 17
11 13 -9 -4 -5 6 8 24 12 18 27 32 32 32 5 0 8 4 6 9 -1 5 7 17 18 26 11 9 13
13 6 9 -9 -4 -6 6 8 24 12 18 27 32 32 32 6 0 8 4 4 9 -3 6 2 14 11 19 9 5 16
13 16 18 1 20 11 33 21 27 6 -3 7 -1 3 5 -4 7 4 23 18 37 14 14 22 25 18 25
-4 0 4 10 18 21 14 11 18 17 11 13 -9 -4 -5 6 8 24 12 18 27 32 32 32 6 0 8 4
4 9 -3 6 3 14 12 20 10 5 17 11 15 13 -8 8 11 37 21 31 6 -3 7 -1 3 5 -4 7 5
24 21 39 15 16 27 30 26 33 -2 14 10 29 20 23 6 -3 7 -1 3 5 -4 7 4 23 18 37
14 14 22 25 18 25 -4 0 4 10 18 21 14 11 18 17 11 13 -9 -4 -5 6 8 24 12 18
27 32 32 32 6 0 7 5 4 10 -3 6 1 13 9 16 9 3 14 10 11 14 -3 4 8 22 24 39 16
17 26 31 23 31 -4 0 0 6 9 13 9 7 16 14 17 17 4 22 16 39 25 33 6 -3 7 -1 3 5
-4 7 4 23 18 37 14 14 22 25 18 25 -4 0 4 10 18 21 14 11 18 17 11 13 -9 -4
-5 6 8 24 12 18 27 32 32 32 6 0 7 5 4 10 -3 6 1 13 9 16 9 3 14 10 11 14 -3
4 8 22 24 39 16 17 26 31 23 31 -4 0 2 7 12 15 11 8 16 15 10 15 -5 0 2 10 16
21 14 11 18 17 11 13 -9 -4 -5 6 8 24 12 18 27 32 32 32 5 0 8 4 6 9 -1 5 7
17 18 26 11 9 14 13 7 10 -11 -6 -11 -3 -1 13 7 12 17 18 23 15 5 -3 6 -1 2 5
-4 7 5 24 21 39 15 16 26 28 24 28 -1 0 1 8 4 17 4 10 12 15 18 11 6 -3 7 -1
3 5 -4 7 4 23 18 37 14 14 22 25 18 25 -4 0 4 10 18 21 14 11 18 17 11 13 -9
-4 -5 6 8 24 12 18 27 32 32 32 5 0 8 4 6 9 -1 5 7 17 18 26 11 9 13 13 6 9
-9 -4 -6 6 8 24 12 18 27 32 32 32 6 0 8 4 4 9 -3 6 1 13 9 18 8 4 15 10 15
13 0 18 15 39 24 33 6 -3 7 -1 3 5 -4 7 4 23 18 37 14 14 22 25 18 25 -4 0 4
10 18 21 14 11 18 17 11 13 -9 -4 -5 6 8 24 12 18 27 32 32 32 5 0 8 4 6 9 -1
5 7 17 18 26 11 9 13 13 6 9 -9 -4 -6 6 8 24 12 18 27 32 32 32 6 0 8 4 4 9
-3 6 3 14 12 20 10 5 17 13 17 18 -3 17 8 33 19 26 6 -3 7 -1 3 5 -4 7 4 23
18 37 14 14 22 25 18 25 -4 0 4 10 18 21 14 11 18 17 11 13 -9 -4 -5 6 8 24
12 18 27 32 32 32 6 0 8 4 4 9 -3 6 1 13 9 18 8 4 15 10 15 13 0 18 15 39 24
33 6 -3 7 -1 3 5 -4 7 3 22 16 35 13 13 25 27 27 32 2 6 6 16 8 22 3 7 10 10
16 6 6 -3 7 -1 3 5 -4 7 4 23 18 37 14 14 22 25 18 25 -4 0 4 10 18 21 14 11
18 17 11 13 -9 -4 -5 6 8 24 12 18 27 32 32 32 6 0 8 4 4 9 -3 6 3 14 12 20
10 5 17 12 16 15 -5 13 10 35 20 29 6 -3 7 -1 3 5 -4 7 4 23 18 37 14 14 23
25 20 25 -3 0 9 20 26 45 17 25 36 45 41 45 6 0 8 4 4 9 -3 6 3 14 12 20 10 6
14 11 10 11 -12 0 54 90 66 90 6 0 8 3 4 6 -3 4 7 26 23 50 51 74 34 188 -36
243 l-27 21 -3356 0 c-3311 0 -3356 0 -3388 -20z m2854 -373 c24 -17 153 -148
288 -290 236 -248 245 -259 245 -297 0 -63 -54 -103 -110 -82 -14 6 -94 64
-178 131 -130 102 -181 133 -194 119 -2 -2 -5 -504 -8 -1116 l-5 -1114 -24
-19 c-35 -28 -168 -27 -205 2 l-26 20 0 1083 c0 596 -3 1098 -6 1115 -5 22
-12 31 -26 31 -11 0 -88 -53 -172 -118 -83 -66 -161 -124 -173 -130 -35 -19
-63 -14 -94 17 -45 46 -40 80 24 149 197 214 477 497 507 512 55 30 107 25
157 -13z m1257 12 l26 -20 0 -1083 c0 -596 3 -1098 6 -1115 4 -21 12 -31 25
-31 10 0 90 57 179 126 185 145 211 155 260 106 20 -21 30 -40 30 -61 0 -33
-22 -58 -355 -404 -212 -222 -259 -248 -347 -194 -46 28 -543 546 -553 576 -9
29 11 76 41 96 51 33 60 28 299 -159 93 -73 135 -97 147 -83 2 1 5 503 8 1115
l5 1114 24 19 c35 28 168 27 205 -2z"/>
</g>
</svg>
